<svg xmlns="http://www.w3.org/2000/svg" viewBox="0 0 108 108" width="512" height="512">
  <g fill="none" stroke="#B2FBD7" stroke-width="4" stroke-linecap="round">
    <path d="M 80,16 Q 88,24 88,32"/>
    <path d="M 90,9 Q 100,20 100,34"/>
  </g>

  <g>
    <path d="M 40,26 C 44,17 64,17 68,26 L 73,40 C 64,47 44,47 35,40 Z" fill="#54F5A0"/>
    <circle cx="54" cy="44" r="3.2" fill="#B2FBD7"/>
  </g>

  <g fill="none" stroke="#F2FFF8" stroke-width="5" stroke-linejoin="round">
    <path d="M 45,48 H 70 C 75,48 79,52 79,57 V 79 C 79,84 75,88 70,88 H 45 C 40,88 36,84 36,79 V 57 C 36,52 40,48 45,48 Z"/>
  </g>

  <g fill="#54F5A0">
    <rect x="40" y="52" width="34" height="10" rx="4.5"/>
    <rect x="40" y="64" width="34" height="10" rx="4.5"/>
    <rect x="40" y="76" width="34" height="7" rx="3"/>
  </g>

  <path d="M 54,59 L 50,67 H 53.5 L 52,75 L 58,65 H 54.5 Z" fill="#FFFFFF"/>
</svg>